# xmcd CD database file
#
# Track frame offsets:
#	150
#	17455
#	37074
#	70824
#	84578
#	99602
#	115627
#	130588
#	142435
#	156825
#	172630
#	186873
#	210392
#	226980
#
# Disc length: 3170 seconds
#
# Revision: 2
# Processed by: cddbd v1.4PL0 Copyright (c) Steve Scherf et al.
# Submitted via: CDex 1.50Beta7
#
DISCID=b30c600e
DTITLE=The Blues Brothers - The Blues Brothers Hit It
DYEAR=2000
DGENRE=Blues
TTITLE0=Peter Gunn Theme
TTITLE1=She Caught The Katy
TTITLE2=Sweet Home Chicago
TTITLE3=Shake A Tail Feather
TTITLE4=Everbody Needs Somebody To Love
TTITLE5=Gimme Some Lovin'
TTITLE6=Think
TTITLE7=Theme From Rawhide
TTITLE8=Minnie The Moocher
TTITLE9=Jailhouse Rock
TTITLE10=Soul Man
TTITLE11=Shotgun Blues
TTITLE12=Hey Bartender
TTITLE13=The Old Landmark
EXTD=YEAR: 2000
EXTT0=
EXTT1=
EXTT2=
EXTT3=
EXTT4=
EXTT5=
EXTT6=
EXTT7=
EXTT8=
EXTT9=
EXTT10=
EXTT11=
EXTT12=
EXTT13=
PLAYORDER=
